# xmcd
#
# Track frame offsets:
#	150
#	15820
#	35263
#	53000
#	69957
#	84835
#	105257
#	123685
#	140867
#	154820
#	172581
#	189340
#	208850
#	226292
#	245795
#	264747
#	280274
#	296988
#
# Disc length: 4214 seconds
#
# Revision: 3
# Processed by: cddbd v1.5.2PL0 Copyright (c) Steve Scherf et al.
# Submitted via: EZCDAudioConverter 7.0.0.1
#
DISCID=f7107412
DTITLE=Tim McGraw - Sundown Heaven Town Deluxe
DYEAR=2014
DGENRE=Country
TTITLE0=Overrated
TTITLE1=City Lights
TTITLE2=Shotgun Rider
TTITLE3=Dust
TTITLE4=Diamond Rings And Old Barstools
TTITLE5=Words Are Medicine
TTITLE6=Sick Of Me
TTITLE7=Meanwhile Back At Mama's
TTITLE8=Keep On Truckin
TTITLE9=Last Turn Home
TTITLE10=Portland, Maine
TTITLE11=Lookin' For That Girl
TTITLE12=Still On The Line
TTITLE13=Lincoln Continentals And Cadillacs
TTITLE14=Kids Today
TTITLE15=I’m Feelin' You
TTITLE16=The View
TTITLE17=Black Jacket
EXTD=
EXTT0=
EXTT1=
EXTT2=
EXTT3=
EXTT4=
EXTT5=
EXTT6=
EXTT7=
EXTT8=
EXTT9=
EXTT10=
EXTT11=
EXTT12=
EXTT13=
EXTT14=
EXTT15=
EXTT16=
EXTT17=
PLAYORDER=
